<svg width="165" height="53" viewBox="0 0 165 53" fill="none" xmlns="http://www.w3.org/2000/svg">
<path d="M88.7937 50.061C88.346 50.061 87.9712 49.9829 87.6692 49.8215C87.3673 49.6601 87.1278 49.4623 86.9509 49.2176V49.6913C86.9509 49.7642 86.9248 49.8267 86.878 49.8788C86.8311 49.9308 86.7687 49.9516 86.6906 49.9516H86.1752C86.1023 49.9516 86.0399 49.9256 85.9878 49.8788C85.9409 49.8319 85.9149 49.7694 85.9149 49.6913V42.2316C85.9149 42.1587 85.9409 42.0962 85.9878 42.0442C86.0346 41.9973 86.0971 41.9713 86.1752 41.9713H86.727C86.7999 41.9713 86.8624 41.9973 86.9092 42.0442C86.9561 42.091 86.9769 42.1535 86.9769 42.2316V44.8136C87.1643 44.5794 87.4037 44.3868 87.7005 44.2306C87.9972 44.0744 88.3616 43.9963 88.7937 43.9963C89.2257 43.9963 89.5693 44.0692 89.866 44.215C90.1628 44.3607 90.4074 44.5637 90.5948 44.8136C90.7874 45.0687 90.928 45.355 91.0269 45.6778C91.1258 46.0005 91.1779 46.3389 91.1935 46.6877C91.1987 46.8074 91.2039 46.9219 91.2039 47.026C91.2039 47.1301 91.2039 47.2447 91.1935 47.3644C91.1779 47.7236 91.1206 48.0672 91.0269 48.3847C90.928 48.7075 90.7874 48.9938 90.5948 49.2437C90.4022 49.4935 90.1628 49.6913 89.866 49.8371C89.5693 49.9829 89.2101 50.0557 88.7937 50.0557V50.061ZM88.5594 49.15C88.9498 49.15 89.2518 49.0667 89.4756 48.8949C89.6942 48.7283 89.8556 48.5045 89.9545 48.2338C90.0534 47.9579 90.1055 47.6663 90.1211 47.354C90.1263 47.1354 90.1263 46.9219 90.1211 46.7033C90.1055 46.3909 90.0482 46.0942 89.9545 45.8235C89.8556 45.5476 89.6995 45.329 89.4756 45.1624C89.257 44.9958 88.9498 44.9073 88.5594 44.9073C88.2054 44.9073 87.9139 44.9906 87.6848 45.152C87.4506 45.3186 87.2788 45.5268 87.1643 45.7819C87.0498 46.037 86.9873 46.2972 86.9769 46.5575C86.9717 46.6773 86.9665 46.823 86.9665 46.9896C86.9665 47.1562 86.9665 47.3019 86.9769 47.4217C86.9925 47.6976 87.055 47.9683 87.1643 48.239C87.2736 48.5045 87.4402 48.7231 87.6692 48.8949C87.8983 49.0667 88.195 49.1552 88.5646 49.1552L88.5594 49.15Z" fill="#231F20"/>
<path d="M93.3903 52.086C93.3278 52.086 93.2758 52.0651 93.2341 52.0183C93.1925 51.9714 93.1665 51.9194 93.1665 51.8621C93.1665 51.8309 93.1665 51.7996 93.1769 51.7736C93.1873 51.7476 93.1977 51.7059 93.2237 51.6591L94.0879 49.6028L91.9431 44.5377C91.9067 44.4492 91.8859 44.3867 91.8859 44.3451C91.8859 44.2774 91.9067 44.2202 91.9535 44.1785C92.0004 44.1317 92.0524 44.1108 92.1201 44.1108H92.6719C92.7552 44.1108 92.8177 44.1317 92.8593 44.1681C92.901 44.2045 92.927 44.2514 92.9426 44.3035L94.6501 48.3951L96.4044 44.3035C96.4252 44.2514 96.4565 44.2045 96.4981 44.1681C96.5397 44.1317 96.6022 44.1108 96.6855 44.1108H97.2113C97.279 44.1108 97.3362 44.1317 97.3779 44.1785C97.4195 44.2254 97.4455 44.2774 97.4455 44.3347C97.4455 44.3711 97.4247 44.4388 97.3883 44.5377L94.1972 51.8985C94.1764 51.9506 94.1451 51.9975 94.1035 52.0339C94.0618 52.0703 93.9994 52.0912 93.9161 52.0912H93.3903V52.086Z" fill="#231F20"/>
<path d="M120.075 49.9726C120.002 49.9726 119.934 49.9465 119.882 49.8945C119.83 49.8424 119.804 49.78 119.804 49.7019V42.2421C119.804 42.1693 119.83 42.1016 119.882 42.0495C119.934 41.9975 119.997 41.9714 120.075 41.9714H120.986C121.069 41.9714 121.131 41.9975 121.183 42.0495C121.236 42.1016 121.256 42.164 121.256 42.2421V46.0943L123.151 44.3036C123.219 44.2411 123.281 44.1943 123.333 44.163C123.385 44.1318 123.464 44.111 123.568 44.111H124.614C124.687 44.111 124.749 44.1318 124.796 44.1787C124.843 44.2255 124.864 44.2828 124.864 44.3608C124.864 44.3921 124.859 44.4233 124.843 44.465C124.827 44.5014 124.796 44.5378 124.755 44.5691L122.433 46.7451L125.036 49.5405C125.109 49.6134 125.15 49.6811 125.15 49.7331C125.15 49.8112 125.124 49.8685 125.077 49.9153C125.03 49.9622 124.968 49.983 124.906 49.983H123.833C123.719 49.983 123.641 49.9674 123.588 49.9309C123.536 49.8945 123.479 49.8528 123.417 49.7904L121.262 47.5259V49.7123C121.262 49.7904 121.236 49.8528 121.189 49.9049C121.142 49.957 121.074 49.983 120.991 49.983H120.08L120.075 49.9726Z" fill="#231F20"/>
<path d="M128.315 50.087C127.717 50.087 127.206 49.9829 126.8 49.7694C126.394 49.556 126.077 49.2645 125.863 48.8793C125.65 48.4941 125.525 48.0516 125.499 47.5362C125.494 47.4009 125.489 47.2343 125.489 47.0417C125.489 46.8491 125.489 46.6825 125.499 46.5471C125.53 46.0266 125.655 45.5789 125.879 45.1989C126.103 44.8188 126.415 44.5221 126.826 44.3139C127.238 44.1057 127.732 43.9963 128.32 43.9963C128.909 43.9963 129.403 44.1005 129.814 44.3139C130.226 44.5273 130.538 44.8188 130.762 45.1989C130.986 45.5789 131.111 46.0266 131.142 46.5471C131.147 46.6825 131.152 46.8491 131.152 47.0417C131.152 47.2343 131.152 47.4009 131.142 47.5362C131.111 48.0464 130.991 48.4941 130.777 48.8793C130.564 49.2645 130.252 49.5612 129.84 49.7694C129.429 49.9777 128.924 50.087 128.326 50.087H128.315ZM128.315 48.9678C128.711 48.9678 129.023 48.8428 129.242 48.5878C129.46 48.3379 129.58 47.9683 129.601 47.4789C129.606 47.3644 129.611 47.2187 129.611 47.0417C129.611 46.8647 129.611 46.7137 129.601 46.6044C129.58 46.1255 129.46 45.7559 129.242 45.5008C129.023 45.2457 128.716 45.1156 128.315 45.1156C127.914 45.1156 127.607 45.2457 127.389 45.5008C127.17 45.7559 127.05 46.1255 127.029 46.6044C127.024 46.7189 127.019 46.8647 127.019 47.0417C127.019 47.2187 127.019 47.3696 127.029 47.4789C127.05 47.9683 127.17 48.3379 127.389 48.5878C127.607 48.8376 127.914 48.9678 128.315 48.9678Z" fill="#231F20"/>
<path d="M132.662 49.9725C132.589 49.9725 132.521 49.9465 132.469 49.8945C132.417 49.8424 132.391 49.7799 132.391 49.7019V44.3816C132.391 44.3088 132.417 44.2411 132.469 44.189C132.521 44.137 132.584 44.1109 132.662 44.1109H133.542C133.615 44.1109 133.682 44.137 133.734 44.189C133.786 44.2411 133.813 44.3036 133.813 44.3816V44.7669C133.969 44.5586 134.182 44.3764 134.448 44.2307C134.713 44.0849 135.031 44.0068 135.4 44.0016C136.259 43.986 136.853 44.3192 137.191 45.0063C137.363 44.7044 137.613 44.4649 137.941 44.2775C138.269 44.0953 138.628 44.0016 139.029 44.0016C139.429 44.0016 139.773 44.0901 140.096 44.2723C140.419 44.4545 140.668 44.7252 140.851 45.0896C141.033 45.454 141.127 45.9121 141.127 46.4691V49.7019C141.127 49.7799 141.1 49.8424 141.048 49.8945C140.996 49.9465 140.934 49.9725 140.856 49.9725H139.929C139.856 49.9725 139.789 49.9465 139.737 49.8945C139.685 49.8424 139.659 49.7799 139.659 49.7019V46.5576C139.659 46.2192 139.612 45.9486 139.513 45.7507C139.414 45.5529 139.284 45.4124 139.117 45.3291C138.951 45.2458 138.768 45.2041 138.565 45.2041C138.399 45.2041 138.237 45.2458 138.071 45.3291C137.904 45.4124 137.769 45.5529 137.665 45.7507C137.561 45.9486 137.509 46.2192 137.509 46.5576V49.7019C137.509 49.7799 137.483 49.8424 137.43 49.8945C137.378 49.9465 137.316 49.9725 137.238 49.9725H136.311C136.228 49.9725 136.165 49.9465 136.113 49.8945C136.067 49.8424 136.041 49.7799 136.041 49.7019V46.5576C136.041 46.2192 135.988 45.9486 135.884 45.7507C135.78 45.5529 135.645 45.4124 135.478 45.3291C135.312 45.2458 135.135 45.2041 134.947 45.2041C134.776 45.2041 134.604 45.2458 134.442 45.3343C134.276 45.4228 134.14 45.5633 134.036 45.7559C133.932 45.9486 133.88 46.2192 133.88 46.5576V49.7019C133.88 49.7799 133.854 49.8424 133.802 49.8945C133.75 49.9465 133.688 49.9725 133.609 49.9725H132.662Z" fill="#231F20"/>
<path d="M144.776 50.087C144.323 50.087 143.937 50.035 143.62 49.9309C143.302 49.8268 143.042 49.6966 142.839 49.5352C142.636 49.3791 142.485 49.2177 142.386 49.0615C142.287 48.9053 142.235 48.77 142.23 48.6659C142.225 48.5826 142.246 48.5201 142.303 48.4681C142.36 48.416 142.423 48.3952 142.49 48.3952H143.38C143.412 48.3952 143.438 48.3952 143.459 48.4056C143.479 48.4108 143.511 48.4368 143.547 48.4733C143.646 48.5566 143.75 48.6399 143.859 48.7336C143.969 48.8221 144.099 48.9001 144.25 48.9626C144.401 49.0251 144.588 49.0563 144.812 49.0563C145.104 49.0563 145.348 48.999 145.551 48.8845C145.749 48.77 145.848 48.6034 145.848 48.3848C145.848 48.2286 145.806 48.0985 145.718 47.9996C145.629 47.9006 145.473 47.8122 145.239 47.7341C145.005 47.656 144.677 47.5727 144.245 47.479C143.823 47.3801 143.474 47.2551 143.198 47.1094C142.922 46.9584 142.714 46.771 142.579 46.5472C142.443 46.3233 142.376 46.0578 142.376 45.7611C142.376 45.4644 142.464 45.1885 142.641 44.923C142.818 44.6575 143.079 44.4389 143.427 44.2619C143.776 44.0901 144.208 44.0016 144.729 44.0016C145.135 44.0016 145.489 44.0536 145.785 44.1526C146.082 44.2515 146.337 44.3816 146.535 44.5326C146.733 44.6835 146.884 44.8345 146.993 44.9907C147.097 45.1468 147.155 45.277 147.16 45.3915C147.165 45.4748 147.144 45.5373 147.092 45.5893C147.04 45.6414 146.978 45.6622 146.91 45.6622H146.077C146.041 45.6622 146.004 45.657 145.973 45.6414C145.942 45.6258 145.91 45.6049 145.884 45.5841C145.801 45.5112 145.713 45.4279 145.614 45.3499C145.515 45.2718 145.395 45.1937 145.26 45.1312C145.119 45.0688 144.937 45.0375 144.713 45.0375C144.427 45.0375 144.208 45.1 144.057 45.2249C143.906 45.3499 143.833 45.506 143.833 45.6934C143.833 45.8236 143.87 45.9329 143.943 46.0266C144.016 46.1203 144.161 46.2088 144.375 46.2921C144.593 46.3754 144.921 46.4587 145.369 46.5524C145.874 46.6409 146.27 46.7762 146.572 46.9532C146.868 47.1302 147.077 47.3332 147.201 47.5623C147.326 47.7913 147.389 48.0464 147.389 48.3223C147.389 48.6607 147.29 48.9626 147.092 49.2333C146.894 49.504 146.598 49.7174 146.212 49.8684C145.827 50.0246 145.348 50.0974 144.776 50.0974V50.087Z" fill="#231F20"/>
<path d="M148.836 49.9726C148.758 49.9726 148.696 49.9466 148.644 49.8945C148.591 49.8424 148.565 49.78 148.565 49.7019V42.2421C148.565 42.1693 148.591 42.1016 148.644 42.0495C148.696 41.9975 148.758 41.9714 148.836 41.9714H149.841C149.924 41.9714 149.987 41.9975 150.039 42.0495C150.091 42.1016 150.112 42.164 150.112 42.2421V44.8137C150.315 44.5743 150.564 44.3765 150.856 44.2255C151.147 44.0745 151.512 44.0017 151.939 44.0017C152.397 44.0017 152.798 44.1058 153.141 44.314C153.485 44.5222 153.75 44.8137 153.938 45.1886C154.125 45.5634 154.219 46.0163 154.219 46.542V49.7071C154.219 49.7852 154.193 49.8476 154.141 49.8997C154.089 49.9518 154.026 49.9778 153.948 49.9778H152.933C152.855 49.9778 152.792 49.9518 152.74 49.8997C152.688 49.8476 152.662 49.7852 152.662 49.7071V46.6097C152.662 46.1724 152.553 45.8341 152.34 45.5842C152.126 45.3343 151.814 45.2146 151.408 45.2146C151.002 45.2146 150.705 45.3395 150.466 45.5842C150.231 45.8341 150.112 46.1724 150.112 46.6097V49.7071C150.112 49.7852 150.085 49.8476 150.039 49.8997C149.992 49.9518 149.924 49.9778 149.841 49.9778H148.836V49.9726Z" fill="#231F20"/>
<path d="M155.869 43.1427C155.786 43.1427 155.723 43.1166 155.671 43.0698C155.624 43.0229 155.598 42.9553 155.598 42.872V42.0599C155.598 41.987 155.624 41.9193 155.671 41.8673C155.718 41.8152 155.786 41.7892 155.869 41.7892H156.894C156.978 41.7892 157.045 41.8152 157.098 41.8673C157.15 41.9193 157.176 41.9818 157.176 42.0599V42.872C157.176 42.9553 157.15 43.0177 157.098 43.0698C157.045 43.1218 156.978 43.1427 156.894 43.1427H155.869ZM155.911 49.9725C155.838 49.9725 155.77 49.9465 155.718 49.8944C155.666 49.8424 155.64 49.7799 155.64 49.7018V44.3816C155.64 44.3087 155.666 44.2411 155.718 44.189C155.77 44.137 155.833 44.1109 155.911 44.1109H156.848C156.931 44.1109 156.993 44.137 157.045 44.189C157.098 44.2411 157.118 44.3035 157.118 44.3816V49.7018C157.118 49.7799 157.092 49.8424 157.045 49.8944C156.999 49.9465 156.931 49.9725 156.848 49.9725H155.911Z" fill="#231F20"/>
<path d="M159.122 52.1121C159.044 52.1121 158.982 52.086 158.93 52.034C158.878 51.9819 158.852 51.9194 158.852 51.8414V44.3816C158.852 44.3087 158.878 44.241 158.93 44.189C158.982 44.1369 159.044 44.1109 159.122 44.1109H160.013C160.096 44.1109 160.158 44.1369 160.21 44.189C160.263 44.241 160.283 44.3035 160.283 44.3816V44.8345C160.466 44.595 160.7 44.3972 160.991 44.2358C161.283 44.0797 161.647 44.0016 162.085 44.0016C162.48 44.0016 162.829 44.0641 163.12 44.1942C163.412 44.3243 163.657 44.5065 163.854 44.7408C164.052 44.975 164.198 45.2562 164.307 45.5789C164.411 45.9017 164.474 46.2609 164.49 46.6513C164.495 46.7814 164.5 46.9116 164.5 47.0469C164.5 47.1823 164.5 47.3176 164.49 47.453C164.484 47.8278 164.427 48.1765 164.323 48.4941C164.219 48.8116 164.063 49.0928 163.865 49.327C163.667 49.5613 163.422 49.7487 163.126 49.884C162.834 50.0194 162.485 50.087 162.09 50.087C161.694 50.087 161.34 50.0142 161.054 49.8684C160.768 49.7226 160.533 49.53 160.356 49.2906V51.8466C160.356 51.9194 160.33 51.9871 160.283 52.0392C160.237 52.0912 160.169 52.1173 160.086 52.1173H159.128L159.122 52.1121ZM161.668 48.8793C161.991 48.8793 162.241 48.8116 162.423 48.6711C162.605 48.5305 162.735 48.3483 162.813 48.1245C162.891 47.9006 162.938 47.6508 162.954 47.3801C162.97 47.1562 162.97 46.9272 162.954 46.7033C162.938 46.4326 162.891 46.1828 162.813 45.9589C162.735 45.7351 162.605 45.5529 162.423 45.4123C162.241 45.2718 161.991 45.2041 161.668 45.2041C161.345 45.2041 161.111 45.277 160.918 45.4175C160.726 45.5581 160.59 45.7403 160.502 45.9641C160.414 46.188 160.367 46.4118 160.351 46.6461C160.346 46.7814 160.341 46.922 160.341 47.0729C160.341 47.2239 160.341 47.3697 160.351 47.5102C160.356 47.7341 160.414 47.9527 160.507 48.1609C160.606 48.3692 160.747 48.5409 160.934 48.6711C161.121 48.8064 161.366 48.8741 161.668 48.8741V48.8793Z" fill="#231F20"/>
<path fill-rule="evenodd" clip-rule="evenodd" d="M118.758 41.4092C118.758 41.4092 118.768 41.4248 118.773 41.43C118.768 41.4248 118.763 41.4144 118.758 41.4092Z" fill="#F95031"/>
<path fill-rule="evenodd" clip-rule="evenodd" d="M118.872 41.5549C118.872 41.5549 118.877 41.5705 118.882 41.5758C118.882 41.5705 118.877 41.5601 118.872 41.5549Z" fill="#F95031"/>
<path fill-rule="evenodd" clip-rule="evenodd" d="M118.95 41.7214C118.95 41.7214 118.955 41.7423 118.961 41.7475C118.961 41.7371 118.955 41.7266 118.95 41.7214Z" fill="#F95031"/>
<path fill-rule="evenodd" clip-rule="evenodd" d="M118.617 41.2842C118.617 41.2842 118.633 41.2946 118.638 41.2998C118.633 41.2946 118.622 41.2894 118.617 41.2842Z" fill="#F95031"/>
<path fill-rule="evenodd" clip-rule="evenodd" d="M118.461 41.1906C118.461 41.1906 118.476 41.201 118.487 41.2062C118.476 41.2062 118.471 41.1958 118.461 41.1906Z" fill="#F95031"/>
<path fill-rule="evenodd" clip-rule="evenodd" d="M118.279 41.1228C118.279 41.1228 118.3 41.128 118.305 41.1332C118.294 41.1332 118.289 41.128 118.279 41.1228Z" fill="#F95031"/>
<path fill-rule="evenodd" clip-rule="evenodd" d="M103.266 43.6215C103.266 43.3196 103.677 43.075 104.192 43.075C104.707 43.075 105.119 43.3196 105.119 43.6215V48.2963C105.119 48.5982 104.707 48.8429 104.192 48.8429C103.677 48.8429 103.266 48.5982 103.266 48.2963V43.6215Z" fill="#FBBC05"/>
<path fill-rule="evenodd" clip-rule="evenodd" d="M112.766 43.9859C112.792 43.4757 113.224 43.0853 113.734 43.1113C114.244 43.1374 114.635 43.5694 114.609 44.0796C114.536 45.4903 113.942 46.8178 113.021 47.7808C112.105 48.7387 110.871 49.3425 109.486 49.3477H104.187C103.677 49.353 103.266 48.9417 103.266 48.4368C103.266 47.9318 103.677 47.5153 104.187 47.5153H109.486C110.335 47.5049 111.105 47.1197 111.683 46.5107C112.313 45.8547 112.714 44.9489 112.766 43.9859Z" fill="#FBBC05"/>
<path fill-rule="evenodd" clip-rule="evenodd" d="M105.108 43.3977C105.134 43.9079 104.744 44.3399 104.234 44.366C103.724 44.392 103.291 44.0016 103.265 43.4914C103.239 42.9917 103.12 42.5284 102.922 42.1067C102.719 41.6694 102.427 41.279 102.079 40.951C101.704 40.6023 101.683 40.0192 102.032 39.6496C102.38 39.2748 102.964 39.254 103.333 39.6028C103.854 40.0869 104.281 40.6699 104.593 41.3311C104.89 41.9661 105.072 42.6637 105.108 43.4029V43.3977Z" fill="#FBBC05"/>
<path fill-rule="evenodd" clip-rule="evenodd" d="M110.762 50.1703C111.293 50.1703 111.72 50.5972 111.72 51.1281C111.72 51.6591 111.293 52.086 110.762 52.086C110.231 52.086 109.804 51.6591 109.804 51.1281C109.804 50.5972 110.231 50.1703 110.762 50.1703Z" fill="#CC9212"/>
<path fill-rule="evenodd" clip-rule="evenodd" d="M104.156 50.1339C104.687 50.1339 105.113 50.5608 105.113 51.0918C105.113 51.6227 104.687 52.0496 104.156 52.0496C103.625 52.0496 103.198 51.6227 103.198 51.0918C103.198 50.5608 103.625 50.1339 104.156 50.1339Z" fill="#FBBC05"/>
<path fill-rule="evenodd" clip-rule="evenodd" d="M107.222 44.9594C106.712 44.9594 106.295 44.5482 106.295 44.0328C106.295 43.5174 106.706 43.1062 107.222 43.1062H113.687C114.197 43.1062 114.614 43.5174 114.614 44.0328C114.614 44.5482 114.203 44.9594 113.687 44.9594H107.222Z" fill="#CC9212"/>
<path d="M3.22257 16.0782V25.8181H0.5V2.39246H6.92382C9.79736 2.39246 11.9213 2.94426 13.2956 4.04266C14.6699 5.14106 15.357 6.79647 15.357 9.00889C15.357 12.1063 13.7849 14.199 10.6459 15.2922L17.0072 25.8181H13.7849L8.11072 16.0782H3.22257ZM3.22257 13.7409H6.95505C8.87595 13.7409 10.2867 13.3608 11.1873 12.5956C12.0827 11.8304 12.5356 10.6851 12.5356 9.15985C12.5356 7.63458 12.0774 6.49454 11.1665 5.81259C10.2555 5.13065 8.78746 4.78707 6.76765 4.78707H3.22778V13.7461L3.22257 13.7409Z" fill="#666666"/>
<path d="M31.1824 25.8181L30.6514 23.3194H30.5212C29.6467 24.4178 28.7721 25.1674 27.9028 25.5526C27.0334 25.9431 25.9454 26.1357 24.644 26.1357C22.9053 26.1357 21.5362 25.688 20.5523 24.7874C19.5633 23.892 19.0687 22.6114 19.0687 20.956C19.0687 17.4109 21.9058 15.5525 27.5748 15.3807L30.5577 15.287V14.199C30.5577 12.8195 30.261 11.8044 29.6675 11.1485C29.0741 10.4926 28.1266 10.1646 26.8252 10.1646C25.3624 10.1646 23.707 10.6123 21.859 11.5129L21.0417 9.47747C21.9058 9.00895 22.8533 8.63935 23.884 8.37386C24.9147 8.10837 25.9506 7.97302 26.9866 7.97302C29.0793 7.97302 30.6306 8.43633 31.6405 9.36815C32.6504 10.2948 33.1553 11.7888 33.1553 13.8398V25.8233H31.1824V25.8181ZM25.175 23.9441C26.8304 23.9441 28.1318 23.4912 29.0741 22.5802C30.0215 21.6744 30.49 20.399 30.49 18.7644V17.1767L27.8299 17.2912C25.7164 17.3641 24.1911 17.6972 23.2541 18.2751C22.3171 18.8581 21.8538 19.7639 21.8538 20.9924C21.8538 21.9555 22.1453 22.6843 22.7283 23.1892C23.3114 23.6942 24.1234 23.9441 25.1698 23.9441H25.175Z" fill="#666666"/>
<path d="M36.5025 33.7047C35.4874 33.7047 34.6649 33.5694 34.035 33.3039V31.1383C34.7742 31.3517 35.4978 31.4611 36.2162 31.4611C37.0491 31.4611 37.6582 31.232 38.0486 30.7791C38.439 30.3262 38.6317 29.6339 38.6317 28.702V8.2593H41.2918V28.5146C41.2918 31.9764 39.6936 33.7047 36.5025 33.7047ZM38.413 3.5013C38.413 2.89224 38.564 2.44455 38.8607 2.16344C39.1574 1.88233 39.5322 1.73657 39.9799 1.73657C40.4276 1.73657 40.7764 1.88233 41.0835 2.16864C41.3959 2.45496 41.5468 2.90265 41.5468 3.5013C41.5468 4.09995 41.3907 4.54764 41.0835 4.83916C40.7764 5.13068 40.4068 5.28165 39.9799 5.28165C39.5322 5.28165 39.1574 5.13589 38.8607 4.83916C38.5588 4.54764 38.413 4.09995 38.413 3.5013Z" fill="#666666"/>
<path d="M57.7366 25.8181L57.2056 23.3194H57.0754C56.2009 24.4178 55.3263 25.1674 54.457 25.5526C53.5876 25.9431 52.4996 26.1357 51.1982 26.1357C49.4595 26.1357 48.0904 25.688 47.1065 24.7874C46.1175 23.892 45.6229 22.6114 45.6229 20.956C45.6229 17.4109 48.46 15.5525 54.129 15.3807L57.1119 15.287V14.199C57.1119 12.8195 56.8152 11.8044 56.2217 11.1485C55.6283 10.4926 54.6808 10.1646 53.3794 10.1646C51.9166 10.1646 50.2612 10.6123 48.4132 11.5129L47.5959 9.47747C48.46 9.00895 49.4075 8.63935 50.4382 8.37386C51.4689 8.10837 52.5048 7.97302 53.5408 7.97302C55.6335 7.97302 57.1848 8.43633 58.1947 9.36815C59.2046 10.2948 59.7095 11.7888 59.7095 13.8398V25.8233H57.7366V25.8181ZM51.724 23.9441C53.3794 23.9441 54.6808 23.4912 55.6231 22.5802C56.5705 21.6744 57.039 20.399 57.039 18.7644V17.1767L54.3789 17.2912C52.2654 17.3641 50.7401 17.6972 49.8031 18.2751C48.8661 18.8581 48.4028 19.7639 48.4028 20.9924C48.4028 21.9555 48.6943 22.6843 49.2773 23.1892C49.8604 23.6942 50.6724 23.9441 51.7188 23.9441H51.724Z" fill="#666666"/>
<path d="M85.9201 14.0741C85.9201 17.8222 84.9727 20.7738 83.0778 22.9186C81.1829 25.0685 78.5437 26.1409 75.1704 26.1409C71.7971 26.1409 69.0589 25.0841 67.1849 22.9758C65.3108 20.8675 64.3738 17.8899 64.3738 14.0429C64.3738 10.1959 65.316 7.27549 67.1953 5.17239C69.0745 3.0745 71.745 2.02295 75.2068 2.02295C78.6686 2.02295 81.1986 3.09012 83.0882 5.22965C84.9779 7.36399 85.9253 10.3156 85.9253 14.0741H85.9201ZM67.2525 14.0741C67.2525 17.2444 67.9293 19.6546 69.2775 21.2944C70.631 22.9342 72.5936 23.7515 75.1652 23.7515C77.7368 23.7515 79.7201 22.9342 81.0476 21.2996C82.3698 19.665 83.0362 17.2548 83.0362 14.0741C83.0362 10.8934 82.375 8.53527 81.058 6.90589C79.741 5.2765 77.7888 4.46442 75.2016 4.46442C72.6144 4.46442 70.631 5.28171 69.2827 6.9215C67.9293 8.56129 67.2577 10.9455 67.2577 14.0741H67.2525Z" fill="#9B59BB"/>
<path d="M102.761 25.8181V14.4593C102.761 13.0277 102.433 11.9606 101.782 11.2526C101.131 10.5498 100.111 10.1958 98.7209 10.1958C96.8833 10.1958 95.535 10.6904 94.6813 11.6847C93.8276 12.6789 93.4007 14.3187 93.4007 16.604V25.8181H90.7406V8.25932H92.9062L93.3382 10.6643H93.4684C94.015 9.8002 94.775 9.12867 95.7589 8.65495C96.7428 8.18123 97.836 7.94177 99.0437 7.94177C101.157 7.94177 102.75 8.45193 103.817 9.47224C104.884 10.4926 105.421 12.1219 105.421 14.3656V25.8233H102.761V25.8181Z" fill="#9B59BB"/>
<path d="M125.26 8.25935V9.94079L122.006 10.326C122.303 10.7008 122.573 11.1902 122.808 11.794C123.042 12.3979 123.162 13.0798 123.162 13.8346C123.162 15.5525 122.573 16.9268 121.397 17.9523C120.22 18.9779 118.607 19.488 116.556 19.488C116.03 19.488 115.541 19.4464 115.082 19.3579C113.948 19.9565 113.385 20.7114 113.385 21.6172C113.385 22.0961 113.583 22.4553 113.979 22.6843C114.374 22.9134 115.051 23.0279 116.014 23.0279H119.122C121.022 23.0279 122.485 23.4287 123.505 24.2304C124.526 25.0321 125.036 26.1982 125.036 27.7234C125.036 29.6651 124.255 31.1488 122.698 32.1691C121.137 33.1894 118.862 33.6996 115.874 33.6996C113.578 33.6996 111.808 33.2727 110.564 32.419C109.32 31.5652 108.695 30.3575 108.695 28.7958C108.695 27.7286 109.039 26.802 109.721 26.0212C110.403 25.2403 111.366 24.7145 112.605 24.4334C112.157 24.2304 111.782 23.9129 111.475 23.486C111.173 23.0591 111.017 22.5646 111.017 21.9972C111.017 21.3569 111.189 20.7947 111.527 20.3157C111.871 19.8368 112.407 19.3683 113.146 18.9206C112.24 18.5458 111.496 17.9107 110.928 17.0153C110.356 16.1199 110.069 15.0944 110.069 13.9388C110.069 12.0179 110.647 10.5342 111.798 9.4931C112.948 8.45197 114.588 7.9314 116.701 7.9314C117.618 7.9314 118.445 8.04072 119.185 8.25415H125.26V8.25935ZM111.251 28.7698C111.251 29.7224 111.652 30.4408 112.454 30.9353C113.255 31.4247 114.401 31.6745 115.9 31.6745C118.133 31.6745 119.783 31.3414 120.861 30.6751C121.933 30.0087 122.469 29.1029 122.469 27.9577C122.469 27.005 122.178 26.3491 121.59 25.9795C121.001 25.6099 119.898 25.4277 118.274 25.4277H115.082C113.875 25.4277 112.938 25.714 112.261 26.2919C111.584 26.8697 111.251 27.6974 111.251 28.775V28.7698ZM112.693 13.8815C112.693 15.11 113.042 16.0419 113.734 16.6717C114.427 17.3016 115.395 17.6192 116.634 17.6192C119.231 17.6192 120.528 16.3594 120.528 13.8399C120.528 11.3203 119.216 9.88353 116.587 9.88353C115.338 9.88353 114.374 10.2219 113.703 10.8934C113.031 11.565 112.693 12.5645 112.693 13.8919V13.8815Z" fill="#9B59BB"/>
<path d="M131.491 16.8331C131.949 16.1824 132.652 15.3286 133.589 14.2719L139.263 8.26452H142.418L135.301 15.7451L142.912 25.8233H139.69L133.49 17.5254L131.486 19.2537V25.8233H128.857V0.888062H131.486V14.1053C131.486 14.6935 131.444 15.5993 131.355 16.8279H131.486L131.491 16.8331Z" fill="#9B59BB"/>
<path d="M145.864 3.5013C145.864 2.89224 146.015 2.44455 146.311 2.16344C146.613 1.88233 146.988 1.73657 147.436 1.73657C147.883 1.73657 148.232 1.88233 148.539 2.16864C148.852 2.45496 149.008 2.90265 149.008 3.5013C149.008 4.09995 148.852 4.54764 148.539 4.83916C148.232 5.13068 147.863 5.28165 147.436 5.28165C147.009 5.28165 146.613 5.13589 146.311 4.83916C146.015 4.54764 145.864 4.09995 145.864 3.5013ZM148.748 25.8181H146.088V8.2593H148.748V25.8233V25.8181Z" fill="#9B59BB"/>
<path d="M162.402 7.93652C163.183 7.93652 163.88 7.99899 164.5 8.12913L164.13 10.5966C163.402 10.4353 162.761 10.3572 162.209 10.3572C160.788 10.3572 159.575 10.935 158.565 12.0855C157.556 13.2411 157.051 14.6779 157.051 16.3958V25.8181H154.391V8.25928H156.587L156.889 11.5128H157.019C157.67 10.3676 158.456 9.48782 159.372 8.86834C160.289 8.24886 161.298 7.94173 162.402 7.94173V7.93652Z" fill="#9B59BB"/>
</svg>
